<svg xmlns="http://www.w3.org/2000/svg" width="640" height="500" viewBox="0 0 640 500"><defs><linearGradient id="metal" x1="0" y1="0" x2="1" y2="1"><stop stop-color="#e5e1c3"/><stop offset=".3" stop-color="#8ca090"/><stop offset=".5" stop-color="#456452"/><stop offset=".8" stop-color="#c0c8a5"/><stop offset="1" stop-color="#6c8170"/></linearGradient><linearGradient id="hole"><stop stop-color="#071c15"/><stop offset=".65" stop-color="#243d2c"/><stop offset="1" stop-color="#768474"/></linearGradient><radialGradient id="shade"><stop stop-color="#12241d" stop-opacity="0"/><stop offset="1" stop-color="#12241d" stop-opacity="1"/></radialGradient></defs><rect width="640" height="500" fill="#12241d"/><g transform="translate(3,-25) rotate(-16 320 250) skewX(-12)"><path d="M35,-7 l28,16 v32 l-28,16 l-28,-16 v-32 z" fill="url(#metal)" stroke="#b8c4a6" stroke-width="1.4"/><path d="M35,2 l20,12 v24 l-20,12 l-20,-12 v-24 z" fill="url(#hole)"/><path d="M15,14 l20,-12 l20,12" fill="none" stroke="#f0e8cb" stroke-width="2" opacity=".7"/><path d="M104,-7 l28,16 v32 l-28,16 l-28,-16 v-32 z" fill="url(#metal)" stroke="#b8c4a6" stroke-width="1.4"/><path d="M104,2 l20,12 v24 l-20,12 l-20,-12 v-24 z" fill="url(#hole)"/><path d="M84,14 l20,-12 l20,12" fill="none" stroke="#f0e8cb" stroke-width="2" opacity=".7"/><path d="M173,-7 l28,16 v32 l-28,16 l-28,-16 v-32 z" fill="url(#metal)" stroke="#b8c4a6" stroke-width="1.4"/><path d="M173,2 l20,12 v24 l-20,12 l-20,-12 v-24 z" fill="url(#hole)"/><path d="M153,14 l20,-12 l20,12" fill="none" stroke="#f0e8cb" stroke-width="2" opacity=".7"/><path d="M242,-7 l28,16 v32 l-28,16 l-28,-16 v-32 z" fill="url(#metal)" stroke="#b8c4a6" stroke-width="1.4"/><path d="M242,2 l20,12 v24 l-20,12 l-20,-12 v-24 z" fill="url(#hole)"/><path d="M222,14 l20,-12 l20,12" fill="none" stroke="#f0e8cb" stroke-width="2" opacity=".7"/><path d="M311,-7 l28,16 v32 l-28,16 l-28,-16 v-32 z" fill="url(#metal)" stroke="#b8c4a6" stroke-width="1.4"/><path d="M311,2 l20,12 v24 l-20,12 l-20,-12 v-24 z" fill="url(#hole)"/><path d="M291,14 l20,-12 l20,12" fill="none" stroke="#f0e8cb" stroke-width="2" opacity=".7"/><path d="M380,-7 l28,16 v32 l-28,16 l-28,-16 v-32 z" fill="url(#metal)" stroke="#b8c4a6" stroke-width="1.4"/><path d="M380,2 l20,12 v24 l-20,12 l-20,-12 v-24 z" fill="url(#hole)"/><path d="M360,14 l20,-12 l20,12" fill="none" stroke="#f0e8cb" stroke-width="2" opacity=".7"/><path d="M449,-7 l28,16 v32 l-28,16 l-28,-16 v-32 z" fill="url(#metal)" stroke="#b8c4a6" stroke-width="1.4"/><path d="M449,2 l20,12 v24 l-20,12 l-20,-12 v-24 z" fill="url(#hole)"/><path d="M429,14 l20,-12 l20,12" fill="none" stroke="#f0e8cb" stroke-width="2" opacity=".7"/><path d="M518,-7 l28,16 v32 l-28,16 l-28,-16 v-32 z" fill="url(#metal)" stroke="#b8c4a6" stroke-width="1.4"/><path d="M518,2 l20,12 v24 l-20,12 l-20,-12 v-24 z" fill="url(#hole)"/><path d="M498,14 l20,-12 l20,12" fill="none" stroke="#f0e8cb" stroke-width="2" opacity=".7"/><path d="M587,-7 l28,16 v32 l-28,16 l-28,-16 v-32 z" fill="url(#metal)" stroke="#b8c4a6" stroke-width="1.4"/><path d="M587,2 l20,12 v24 l-20,12 l-20,-12 v-24 z" fill="url(#hole)"/><path d="M567,14 l20,-12 l20,12" fill="none" stroke="#f0e8cb" stroke-width="2" opacity=".7"/><path d="M69,53 l28,16 v32 l-28,16 l-28,-16 v-32 z" fill="url(#metal)" stroke="#b8c4a6" stroke-width="1.4"/><path d="M69,62 l20,12 v24 l-20,12 l-20,-12 v-24 z" fill="url(#hole)"/><path d="M49,74 l20,-12 l20,12" fill="none" stroke="#f0e8cb" stroke-width="2" opacity=".7"/><path d="M138,53 l28,16 v32 l-28,16 l-28,-16 v-32 z" fill="url(#metal)" stroke="#b8c4a6" stroke-width="1.4"/><path d="M138,62 l20,12 v24 l-20,12 l-20,-12 v-24 z" fill="url(#hole)"/><path d="M118,74 l20,-12 l20,12" fill="none" stroke="#f0e8cb" stroke-width="2" opacity=".7"/><path d="M207,53 l28,16 v32 l-28,16 l-28,-16 v-32 z" fill="url(#metal)" stroke="#b8c4a6" stroke-width="1.4"/><path d="M207,62 l20,12 v24 l-20,12 l-20,-12 v-24 z" fill="url(#hole)"/><path d="M187,74 l20,-12 l20,12" fill="none" stroke="#f0e8cb" stroke-width="2" opacity=".7"/><path d="M276,53 l28,16 v32 l-28,16 l-28,-16 v-32 z" fill="url(#metal)" stroke="#b8c4a6" stroke-width="1.4"/><path d="M276,62 l20,12 v24 l-20,12 l-20,-12 v-24 z" fill="url(#hole)"/><path d="M256,74 l20,-12 l20,12" fill="none" stroke="#f0e8cb" stroke-width="2" opacity=".7"/><path d="M345,53 l28,16 v32 l-28,16 l-28,-16 v-32 z" fill="url(#metal)" stroke="#b8c4a6" stroke-width="1.4"/><path d="M345,62 l20,12 v24 l-20,12 l-20,-12 v-24 z" fill="url(#hole)"/><path d="M325,74 l20,-12 l20,12" fill="none" stroke="#f0e8cb" stroke-width="2" opacity=".7"/><path d="M414,53 l28,16 v32 l-28,16 l-28,-16 v-32 z" fill="url(#metal)" stroke="#b8c4a6" stroke-width="1.4"/><path d="M414,62 l20,12 v24 l-20,12 l-20,-12 v-24 z" fill="url(#hole)"/><path d="M394,74 l20,-12 l20,12" fill="none" stroke="#f0e8cb" stroke-width="2" opacity=".7"/><path d="M483,53 l28,16 v32 l-28,16 l-28,-16 v-32 z" fill="url(#metal)" stroke="#b8c4a6" stroke-width="1.4"/><path d="M483,62 l20,12 v24 l-20,12 l-20,-12 v-24 z" fill="url(#hole)"/><path d="M463,74 l20,-12 l20,12" fill="none" stroke="#f0e8cb" stroke-width="2" opacity=".7"/><path d="M552,53 l28,16 v32 l-28,16 l-28,-16 v-32 z" fill="url(#metal)" stroke="#b8c4a6" stroke-width="1.4"/><path d="M552,62 l20,12 v24 l-20,12 l-20,-12 v-24 z" fill="url(#hole)"/><path d="M532,74 l20,-12 l20,12" fill="none" stroke="#f0e8cb" stroke-width="2" opacity=".7"/><path d="M621,53 l28,16 v32 l-28,16 l-28,-16 v-32 z" fill="url(#metal)" stroke="#b8c4a6" stroke-width="1.4"/><path d="M621,62 l20,12 v24 l-20,12 l-20,-12 v-24 z" fill="url(#hole)"/><path d="M601,74 l20,-12 l20,12" fill="none" stroke="#f0e8cb" stroke-width="2" opacity=".7"/><path d="M35,113 l28,16 v32 l-28,16 l-28,-16 v-32 z" fill="url(#metal)" stroke="#b8c4a6" stroke-width="1.4"/><path d="M35,122 l20,12 v24 l-20,12 l-20,-12 v-24 z" fill="url(#hole)"/><path d="M15,134 l20,-12 l20,12" fill="none" stroke="#f0e8cb" stroke-width="2" opacity=".7"/><path d="M104,113 l28,16 v32 l-28,16 l-28,-16 v-32 z" fill="url(#metal)" stroke="#b8c4a6" stroke-width="1.4"/><path d="M104,122 l20,12 v24 l-20,12 l-20,-12 v-24 z" fill="url(#hole)"/><path d="M84,134 l20,-12 l20,12" fill="none" stroke="#f0e8cb" stroke-width="2" opacity=".7"/><path d="M173,113 l28,16 v32 l-28,16 l-28,-16 v-32 z" fill="url(#metal)" stroke="#b8c4a6" stroke-width="1.4"/><path d="M173,122 l20,12 v24 l-20,12 l-20,-12 v-24 z" fill="url(#hole)"/><path d="M153,134 l20,-12 l20,12" fill="none" stroke="#f0e8cb" stroke-width="2" opacity=".7"/><path d="M242,113 l28,16 v32 l-28,16 l-28,-16 v-32 z" fill="url(#metal)" stroke="#b8c4a6" stroke-width="1.4"/><path d="M242,122 l20,12 v24 l-20,12 l-20,-12 v-24 z" fill="url(#hole)"/><path d="M222,134 l20,-12 l20,12" fill="none" stroke="#f0e8cb" stroke-width="2" opacity=".7"/><path d="M311,113 l28,16 v32 l-28,16 l-28,-16 v-32 z" fill="url(#metal)" stroke="#b8c4a6" stroke-width="1.4"/><path d="M311,122 l20,12 v24 l-20,12 l-20,-12 v-24 z" fill="url(#hole)"/><path d="M291,134 l20,-12 l20,12" fill="none" stroke="#f0e8cb" stroke-width="2" opacity=".7"/><path d="M380,113 l28,16 v32 l-28,16 l-28,-16 v-32 z" fill="url(#metal)" stroke="#b8c4a6" stroke-width="1.4"/><path d="M380,122 l20,12 v24 l-20,12 l-20,-12 v-24 z" fill="url(#hole)"/><path d="M360,134 l20,-12 l20,12" fill="none" stroke="#f0e8cb" stroke-width="2" opacity=".7"/><path d="M449,113 l28,16 v32 l-28,16 l-28,-16 v-32 z" fill="url(#metal)" stroke="#b8c4a6" stroke-width="1.4"/><path d="M449,122 l20,12 v24 l-20,12 l-20,-12 v-24 z" fill="url(#hole)"/><path d="M429,134 l20,-12 l20,12" fill="none" stroke="#f0e8cb" stroke-width="2" opacity=".7"/><path d="M518,113 l28,16 v32 l-28,16 l-28,-16 v-32 z" fill="url(#metal)" stroke="#b8c4a6" stroke-width="1.4"/><path d="M518,122 l20,12 v24 l-20,12 l-20,-12 v-24 z" fill="url(#hole)"/><path d="M498,134 l20,-12 l20,12" fill="none" stroke="#f0e8cb" stroke-width="2" opacity=".7"/><path d="M587,113 l28,16 v32 l-28,16 l-28,-16 v-32 z" fill="url(#metal)" stroke="#b8c4a6" stroke-width="1.4"/><path d="M587,122 l20,12 v24 l-20,12 l-20,-12 v-24 z" fill="url(#hole)"/><path d="M567,134 l20,-12 l20,12" fill="none" stroke="#f0e8cb" stroke-width="2" opacity=".7"/><path d="M69,173 l28,16 v32 l-28,16 l-28,-16 v-32 z" fill="url(#metal)" stroke="#b8c4a6" stroke-width="1.4"/><path d="M69,182 l20,12 v24 l-20,12 l-20,-12 v-24 z" fill="url(#hole)"/><path d="M49,194 l20,-12 l20,12" fill="none" stroke="#f0e8cb" stroke-width="2" opacity=".7"/><path d="M138,173 l28,16 v32 l-28,16 l-28,-16 v-32 z" fill="url(#metal)" stroke="#b8c4a6" stroke-width="1.4"/><path d="M138,182 l20,12 v24 l-20,12 l-20,-12 v-24 z" fill="url(#hole)"/><path d="M118,194 l20,-12 l20,12" fill="none" stroke="#f0e8cb" stroke-width="2" opacity=".7"/><path d="M207,173 l28,16 v32 l-28,16 l-28,-16 v-32 z" fill="url(#metal)" stroke="#b8c4a6" stroke-width="1.4"/><path d="M207,182 l20,12 v24 l-20,12 l-20,-12 v-24 z" fill="url(#hole)"/><path d="M187,194 l20,-12 l20,12" fill="none" stroke="#f0e8cb" stroke-width="2" opacity=".7"/><path d="M276,173 l28,16 v32 l-28,16 l-28,-16 v-32 z" fill="url(#metal)" stroke="#b8c4a6" stroke-width="1.4"/><path d="M276,182 l20,12 v24 l-20,12 l-20,-12 v-24 z" fill="url(#hole)"/><path d="M256,194 l20,-12 l20,12" fill="none" stroke="#f0e8cb" stroke-width="2" opacity=".7"/><path d="M345,173 l28,16 v32 l-28,16 l-28,-16 v-32 z" fill="url(#metal)" stroke="#b8c4a6" stroke-width="1.4"/><path d="M345,182 l20,12 v24 l-20,12 l-20,-12 v-24 z" fill="url(#hole)"/><path d="M325,194 l20,-12 l20,12" fill="none" stroke="#f0e8cb" stroke-width="2" opacity=".7"/><path d="M414,173 l28,16 v32 l-28,16 l-28,-16 v-32 z" fill="url(#metal)" stroke="#b8c4a6" stroke-width="1.4"/><path d="M414,182 l20,12 v24 l-20,12 l-20,-12 v-24 z" fill="url(#hole)"/><path d="M394,194 l20,-12 l20,12" fill="none" stroke="#f0e8cb" stroke-width="2" opacity=".7"/><path d="M483,173 l28,16 v32 l-28,16 l-28,-16 v-32 z" fill="url(#metal)" stroke="#b8c4a6" stroke-width="1.4"/><path d="M483,182 l20,12 v24 l-20,12 l-20,-12 v-24 z" fill="url(#hole)"/><path d="M463,194 l20,-12 l20,12" fill="none" stroke="#f0e8cb" stroke-width="2" opacity=".7"/><path d="M552,173 l28,16 v32 l-28,16 l-28,-16 v-32 z" fill="url(#metal)" stroke="#b8c4a6" stroke-width="1.4"/><path d="M552,182 l20,12 v24 l-20,12 l-20,-12 v-24 z" fill="url(#hole)"/><path d="M532,194 l20,-12 l20,12" fill="none" stroke="#f0e8cb" stroke-width="2" opacity=".7"/><path d="M621,173 l28,16 v32 l-28,16 l-28,-16 v-32 z" fill="url(#metal)" stroke="#b8c4a6" stroke-width="1.4"/><path d="M621,182 l20,12 v24 l-20,12 l-20,-12 v-24 z" fill="url(#hole)"/><path d="M601,194 l20,-12 l20,12" fill="none" stroke="#f0e8cb" stroke-width="2" opacity=".7"/><path d="M35,233 l28,16 v32 l-28,16 l-28,-16 v-32 z" fill="url(#metal)" stroke="#b8c4a6" stroke-width="1.4"/><path d="M35,242 l20,12 v24 l-20,12 l-20,-12 v-24 z" fill="url(#hole)"/><path d="M15,254 l20,-12 l20,12" fill="none" stroke="#f0e8cb" stroke-width="2" opacity=".7"/><path d="M104,233 l28,16 v32 l-28,16 l-28,-16 v-32 z" fill="url(#metal)" stroke="#b8c4a6" stroke-width="1.4"/><path d="M104,242 l20,12 v24 l-20,12 l-20,-12 v-24 z" fill="url(#hole)"/><path d="M84,254 l20,-12 l20,12" fill="none" stroke="#f0e8cb" stroke-width="2" opacity=".7"/><path d="M173,233 l28,16 v32 l-28,16 l-28,-16 v-32 z" fill="url(#metal)" stroke="#b8c4a6" stroke-width="1.4"/><path d="M173,242 l20,12 v24 l-20,12 l-20,-12 v-24 z" fill="url(#hole)"/><path d="M153,254 l20,-12 l20,12" fill="none" stroke="#f0e8cb" stroke-width="2" opacity=".7"/><path d="M242,233 l28,16 v32 l-28,16 l-28,-16 v-32 z" fill="url(#metal)" stroke="#b8c4a6" stroke-width="1.4"/><path d="M242,242 l20,12 v24 l-20,12 l-20,-12 v-24 z" fill="url(#hole)"/><path d="M222,254 l20,-12 l20,12" fill="none" stroke="#f0e8cb" stroke-width="2" opacity=".7"/><path d="M311,233 l28,16 v32 l-28,16 l-28,-16 v-32 z" fill="url(#metal)" stroke="#b8c4a6" stroke-width="1.4"/><path d="M311,242 l20,12 v24 l-20,12 l-20,-12 v-24 z" fill="url(#hole)"/><path d="M291,254 l20,-12 l20,12" fill="none" stroke="#f0e8cb" stroke-width="2" opacity=".7"/><path d="M380,233 l28,16 v32 l-28,16 l-28,-16 v-32 z" fill="url(#metal)" stroke="#b8c4a6" stroke-width="1.4"/><path d="M380,242 l20,12 v24 l-20,12 l-20,-12 v-24 z" fill="url(#hole)"/><path d="M360,254 l20,-12 l20,12" fill="none" stroke="#f0e8cb" stroke-width="2" opacity=".7"/><path d="M449,233 l28,16 v32 l-28,16 l-28,-16 v-32 z" fill="url(#metal)" stroke="#b8c4a6" stroke-width="1.4"/><path d="M449,242 l20,12 v24 l-20,12 l-20,-12 v-24 z" fill="url(#hole)"/><path d="M429,254 l20,-12 l20,12" fill="none" stroke="#f0e8cb" stroke-width="2" opacity=".7"/><path d="M518,233 l28,16 v32 l-28,16 l-28,-16 v-32 z" fill="url(#metal)" stroke="#b8c4a6" stroke-width="1.4"/><path d="M518,242 l20,12 v24 l-20,12 l-20,-12 v-24 z" fill="url(#hole)"/><path d="M498,254 l20,-12 l20,12" fill="none" stroke="#f0e8cb" stroke-width="2" opacity=".7"/><path d="M587,233 l28,16 v32 l-28,16 l-28,-16 v-32 z" fill="url(#metal)" stroke="#b8c4a6" stroke-width="1.4"/><path d="M587,242 l20,12 v24 l-20,12 l-20,-12 v-24 z" fill="url(#hole)"/><path d="M567,254 l20,-12 l20,12" fill="none" stroke="#f0e8cb" stroke-width="2" opacity=".7"/><path d="M69,293 l28,16 v32 l-28,16 l-28,-16 v-32 z" fill="url(#metal)" stroke="#b8c4a6" stroke-width="1.4"/><path d="M69,302 l20,12 v24 l-20,12 l-20,-12 v-24 z" fill="url(#hole)"/><path d="M49,314 l20,-12 l20,12" fill="none" stroke="#f0e8cb" stroke-width="2" opacity=".7"/><path d="M138,293 l28,16 v32 l-28,16 l-28,-16 v-32 z" fill="url(#metal)" stroke="#b8c4a6" stroke-width="1.4"/><path d="M138,302 l20,12 v24 l-20,12 l-20,-12 v-24 z" fill="url(#hole)"/><path d="M118,314 l20,-12 l20,12" fill="none" stroke="#f0e8cb" stroke-width="2" opacity=".7"/><path d="M207,293 l28,16 v32 l-28,16 l-28,-16 v-32 z" fill="url(#metal)" stroke="#b8c4a6" stroke-width="1.4"/><path d="M207,302 l20,12 v24 l-20,12 l-20,-12 v-24 z" fill="url(#hole)"/><path d="M187,314 l20,-12 l20,12" fill="none" stroke="#f0e8cb" stroke-width="2" opacity=".7"/><path d="M276,293 l28,16 v32 l-28,16 l-28,-16 v-32 z" fill="url(#metal)" stroke="#b8c4a6" stroke-width="1.4"/><path d="M276,302 l20,12 v24 l-20,12 l-20,-12 v-24 z" fill="url(#hole)"/><path d="M256,314 l20,-12 l20,12" fill="none" stroke="#f0e8cb" stroke-width="2" opacity=".7"/><path d="M345,293 l28,16 v32 l-28,16 l-28,-16 v-32 z" fill="url(#metal)" stroke="#b8c4a6" stroke-width="1.4"/><path d="M345,302 l20,12 v24 l-20,12 l-20,-12 v-24 z" fill="url(#hole)"/><path d="M325,314 l20,-12 l20,12" fill="none" stroke="#f0e8cb" stroke-width="2" opacity=".7"/><path d="M414,293 l28,16 v32 l-28,16 l-28,-16 v-32 z" fill="url(#metal)" stroke="#b8c4a6" stroke-width="1.4"/><path d="M414,302 l20,12 v24 l-20,12 l-20,-12 v-24 z" fill="url(#hole)"/><path d="M394,314 l20,-12 l20,12" fill="none" stroke="#f0e8cb" stroke-width="2" opacity=".7"/><path d="M483,293 l28,16 v32 l-28,16 l-28,-16 v-32 z" fill="url(#metal)" stroke="#b8c4a6" stroke-width="1.4"/><path d="M483,302 l20,12 v24 l-20,12 l-20,-12 v-24 z" fill="url(#hole)"/><path d="M463,314 l20,-12 l20,12" fill="none" stroke="#f0e8cb" stroke-width="2" opacity=".7"/><path d="M552,293 l28,16 v32 l-28,16 l-28,-16 v-32 z" fill="url(#metal)" stroke="#b8c4a6" stroke-width="1.4"/><path d="M552,302 l20,12 v24 l-20,12 l-20,-12 v-24 z" fill="url(#hole)"/><path d="M532,314 l20,-12 l20,12" fill="none" stroke="#f0e8cb" stroke-width="2" opacity=".7"/><path d="M621,293 l28,16 v32 l-28,16 l-28,-16 v-32 z" fill="url(#metal)" stroke="#b8c4a6" stroke-width="1.4"/><path d="M621,302 l20,12 v24 l-20,12 l-20,-12 v-24 z" fill="url(#hole)"/><path d="M601,314 l20,-12 l20,12" fill="none" stroke="#f0e8cb" stroke-width="2" opacity=".7"/><path d="M35,353 l28,16 v32 l-28,16 l-28,-16 v-32 z" fill="url(#metal)" stroke="#b8c4a6" stroke-width="1.4"/><path d="M35,362 l20,12 v24 l-20,12 l-20,-12 v-24 z" fill="url(#hole)"/><path d="M15,374 l20,-12 l20,12" fill="none" stroke="#f0e8cb" stroke-width="2" opacity=".7"/><path d="M104,353 l28,16 v32 l-28,16 l-28,-16 v-32 z" fill="url(#metal)" stroke="#b8c4a6" stroke-width="1.4"/><path d="M104,362 l20,12 v24 l-20,12 l-20,-12 v-24 z" fill="url(#hole)"/><path d="M84,374 l20,-12 l20,12" fill="none" stroke="#f0e8cb" stroke-width="2" opacity=".7"/><path d="M173,353 l28,16 v32 l-28,16 l-28,-16 v-32 z" fill="url(#metal)" stroke="#b8c4a6" stroke-width="1.4"/><path d="M173,362 l20,12 v24 l-20,12 l-20,-12 v-24 z" fill="url(#hole)"/><path d="M153,374 l20,-12 l20,12" fill="none" stroke="#f0e8cb" stroke-width="2" opacity=".7"/><path d="M242,353 l28,16 v32 l-28,16 l-28,-16 v-32 z" fill="url(#metal)" stroke="#b8c4a6" stroke-width="1.4"/><path d="M242,362 l20,12 v24 l-20,12 l-20,-12 v-24 z" fill="url(#hole)"/><path d="M222,374 l20,-12 l20,12" fill="none" stroke="#f0e8cb" stroke-width="2" opacity=".7"/><path d="M311,353 l28,16 v32 l-28,16 l-28,-16 v-32 z" fill="url(#metal)" stroke="#b8c4a6" stroke-width="1.4"/><path d="M311,362 l20,12 v24 l-20,12 l-20,-12 v-24 z" fill="url(#hole)"/><path d="M291,374 l20,-12 l20,12" fill="none" stroke="#f0e8cb" stroke-width="2" opacity=".7"/><path d="M380,353 l28,16 v32 l-28,16 l-28,-16 v-32 z" fill="url(#metal)" stroke="#b8c4a6" stroke-width="1.4"/><path d="M380,362 l20,12 v24 l-20,12 l-20,-12 v-24 z" fill="url(#hole)"/><path d="M360,374 l20,-12 l20,12" fill="none" stroke="#f0e8cb" stroke-width="2" opacity=".7"/><path d="M449,353 l28,16 v32 l-28,16 l-28,-16 v-32 z" fill="url(#metal)" stroke="#b8c4a6" stroke-width="1.4"/><path d="M449,362 l20,12 v24 l-20,12 l-20,-12 v-24 z" fill="url(#hole)"/><path d="M429,374 l20,-12 l20,12" fill="none" stroke="#f0e8cb" stroke-width="2" opacity=".7"/><path d="M518,353 l28,16 v32 l-28,16 l-28,-16 v-32 z" fill="url(#metal)" stroke="#b8c4a6" stroke-width="1.4"/><path d="M518,362 l20,12 v24 l-20,12 l-20,-12 v-24 z" fill="url(#hole)"/><path d="M498,374 l20,-12 l20,12" fill="none" stroke="#f0e8cb" stroke-width="2" opacity=".7"/><path d="M587,353 l28,16 v32 l-28,16 l-28,-16 v-32 z" fill="url(#metal)" stroke="#b8c4a6" stroke-width="1.4"/><path d="M587,362 l20,12 v24 l-20,12 l-20,-12 v-24 z" fill="url(#hole)"/><path d="M567,374 l20,-12 l20,12" fill="none" stroke="#f0e8cb" stroke-width="2" opacity=".7"/><path d="M69,413 l28,16 v32 l-28,16 l-28,-16 v-32 z" fill="url(#metal)" stroke="#b8c4a6" stroke-width="1.4"/><path d="M69,422 l20,12 v24 l-20,12 l-20,-12 v-24 z" fill="url(#hole)"/><path d="M49,434 l20,-12 l20,12" fill="none" stroke="#f0e8cb" stroke-width="2" opacity=".7"/><path d="M138,413 l28,16 v32 l-28,16 l-28,-16 v-32 z" fill="url(#metal)" stroke="#b8c4a6" stroke-width="1.4"/><path d="M138,422 l20,12 v24 l-20,12 l-20,-12 v-24 z" fill="url(#hole)"/><path d="M118,434 l20,-12 l20,12" fill="none" stroke="#f0e8cb" stroke-width="2" opacity=".7"/><path d="M207,413 l28,16 v32 l-28,16 l-28,-16 v-32 z" fill="url(#metal)" stroke="#b8c4a6" stroke-width="1.4"/><path d="M207,422 l20,12 v24 l-20,12 l-20,-12 v-24 z" fill="url(#hole)"/><path d="M187,434 l20,-12 l20,12" fill="none" stroke="#f0e8cb" stroke-width="2" opacity=".7"/><path d="M276,413 l28,16 v32 l-28,16 l-28,-16 v-32 z" fill="url(#metal)" stroke="#b8c4a6" stroke-width="1.4"/><path d="M276,422 l20,12 v24 l-20,12 l-20,-12 v-24 z" fill="url(#hole)"/><path d="M256,434 l20,-12 l20,12" fill="none" stroke="#f0e8cb" stroke-width="2" opacity=".7"/><path d="M345,413 l28,16 v32 l-28,16 l-28,-16 v-32 z" fill="url(#metal)" stroke="#b8c4a6" stroke-width="1.4"/><path d="M345,422 l20,12 v24 l-20,12 l-20,-12 v-24 z" fill="url(#hole)"/><path d="M325,434 l20,-12 l20,12" fill="none" stroke="#f0e8cb" stroke-width="2" opacity=".7"/><path d="M414,413 l28,16 v32 l-28,16 l-28,-16 v-32 z" fill="url(#metal)" stroke="#b8c4a6" stroke-width="1.4"/><path d="M414,422 l20,12 v24 l-20,12 l-20,-12 v-24 z" fill="url(#hole)"/><path d="M394,434 l20,-12 l20,12" fill="none" stroke="#f0e8cb" stroke-width="2" opacity=".7"/><path d="M483,413 l28,16 v32 l-28,16 l-28,-16 v-32 z" fill="url(#metal)" stroke="#b8c4a6" stroke-width="1.4"/><path d="M483,422 l20,12 v24 l-20,12 l-20,-12 v-24 z" fill="url(#hole)"/><path d="M463,434 l20,-12 l20,12" fill="none" stroke="#f0e8cb" stroke-width="2" opacity=".7"/><path d="M552,413 l28,16 v32 l-28,16 l-28,-16 v-32 z" fill="url(#metal)" stroke="#b8c4a6" stroke-width="1.4"/><path d="M552,422 l20,12 v24 l-20,12 l-20,-12 v-24 z" fill="url(#hole)"/><path d="M532,434 l20,-12 l20,12" fill="none" stroke="#f0e8cb" stroke-width="2" opacity=".7"/><path d="M621,413 l28,16 v32 l-28,16 l-28,-16 v-32 z" fill="url(#metal)" stroke="#b8c4a6" stroke-width="1.4"/><path d="M621,422 l20,12 v24 l-20,12 l-20,-12 v-24 z" fill="url(#hole)"/><path d="M601,434 l20,-12 l20,12" fill="none" stroke="#f0e8cb" stroke-width="2" opacity=".7"/><path d="M35,473 l28,16 v32 l-28,16 l-28,-16 v-32 z" fill="url(#metal)" stroke="#b8c4a6" stroke-width="1.4"/><path d="M35,482 l20,12 v24 l-20,12 l-20,-12 v-24 z" fill="url(#hole)"/><path d="M15,494 l20,-12 l20,12" fill="none" stroke="#f0e8cb" stroke-width="2" opacity=".7"/><path d="M104,473 l28,16 v32 l-28,16 l-28,-16 v-32 z" fill="url(#metal)" stroke="#b8c4a6" stroke-width="1.4"/><path d="M104,482 l20,12 v24 l-20,12 l-20,-12 v-24 z" fill="url(#hole)"/><path d="M84,494 l20,-12 l20,12" fill="none" stroke="#f0e8cb" stroke-width="2" opacity=".7"/><path d="M173,473 l28,16 v32 l-28,16 l-28,-16 v-32 z" fill="url(#metal)" stroke="#b8c4a6" stroke-width="1.4"/><path d="M173,482 l20,12 v24 l-20,12 l-20,-12 v-24 z" fill="url(#hole)"/><path d="M153,494 l20,-12 l20,12" fill="none" stroke="#f0e8cb" stroke-width="2" opacity=".7"/><path d="M242,473 l28,16 v32 l-28,16 l-28,-16 v-32 z" fill="url(#metal)" stroke="#b8c4a6" stroke-width="1.4"/><path d="M242,482 l20,12 v24 l-20,12 l-20,-12 v-24 z" fill="url(#hole)"/><path d="M222,494 l20,-12 l20,12" fill="none" stroke="#f0e8cb" stroke-width="2" opacity=".7"/><path d="M311,473 l28,16 v32 l-28,16 l-28,-16 v-32 z" fill="url(#metal)" stroke="#b8c4a6" stroke-width="1.4"/><path d="M311,482 l20,12 v24 l-20,12 l-20,-12 v-24 z" fill="url(#hole)"/><path d="M291,494 l20,-12 l20,12" fill="none" stroke="#f0e8cb" stroke-width="2" opacity=".7"/><path d="M380,473 l28,16 v32 l-28,16 l-28,-16 v-32 z" fill="url(#metal)" stroke="#b8c4a6" stroke-width="1.4"/><path d="M380,482 l20,12 v24 l-20,12 l-20,-12 v-24 z" fill="url(#hole)"/><path d="M360,494 l20,-12 l20,12" fill="none" stroke="#f0e8cb" stroke-width="2" opacity=".7"/><path d="M449,473 l28,16 v32 l-28,16 l-28,-16 v-32 z" fill="url(#metal)" stroke="#b8c4a6" stroke-width="1.4"/><path d="M449,482 l20,12 v24 l-20,12 l-20,-12 v-24 z" fill="url(#hole)"/><path d="M429,494 l20,-12 l20,12" fill="none" stroke="#f0e8cb" stroke-width="2" opacity=".7"/><path d="M518,473 l28,16 v32 l-28,16 l-28,-16 v-32 z" fill="url(#metal)" stroke="#b8c4a6" stroke-width="1.4"/><path d="M518,482 l20,12 v24 l-20,12 l-20,-12 v-24 z" fill="url(#hole)"/><path d="M498,494 l20,-12 l20,12" fill="none" stroke="#f0e8cb" stroke-width="2" opacity=".7"/><path d="M587,473 l28,16 v32 l-28,16 l-28,-16 v-32 z" fill="url(#metal)" stroke="#b8c4a6" stroke-width="1.4"/><path d="M587,482 l20,12 v24 l-20,12 l-20,-12 v-24 z" fill="url(#hole)"/><path d="M567,494 l20,-12 l20,12" fill="none" stroke="#f0e8cb" stroke-width="2" opacity=".7"/></g><rect width="640" height="500" fill="url(#shade)"/><path d="M0 485H640" stroke="#12241d" stroke-width="35"/></svg>